# Blender v2.93.0 OBJ File: ''
# www.blender.org
mtllib Rwall.mtl
o Cube
v 6.363961 10.000000 -7.778174
v 6.363961 0.000000 -7.778174
v 7.778174 10.000000 -6.363961
v 7.778174 0.000000 -6.363961
v -7.778174 10.000000 6.363961
v -7.778174 0.000000 6.363961
v -6.363961 10.000000 7.778174
v -6.363961 0.000000 7.778174
v 6.363961 5.000000 -7.778174
v -6.363961 5.000000 7.778174
v 7.778174 5.000000 -6.363961
v -7.778174 5.000000 6.363961
v -0.707107 0.000000 -0.707107
v 0.707107 10.000000 0.707107
v 0.707107 0.000000 0.707107
v -0.707107 10.000000 -0.707107
v -0.707107 5.000000 -0.707107
v 0.707107 5.000000 0.707107
v -4.242640 0.000000 2.828427
v -2.828427 10.000000 4.242640
v -2.828427 5.000000 4.242640
v -2.828427 0.000000 4.242640
v -4.242640 10.000000 2.828427
v -4.242640 5.000000 2.828427
v -6.363961 7.500000 7.778174
v 6.363961 7.500000 -7.778174
v 7.778174 7.500000 -6.363961
v -7.778174 7.500000 6.363961
v -0.707107 7.500000 -0.707107
v 0.707107 7.500000 0.707107
v -4.242640 7.500000 2.828427
v -2.828427 7.500000 4.242640
v -1.060660 0.000000 2.474874
v -2.474874 10.000000 1.060660
v -2.474874 5.000000 1.060660
v -2.474874 0.000000 1.060660
v -1.060660 10.000000 2.474874
v -1.060660 5.000000 2.474874
v -1.060660 7.500000 2.474874
v -2.474874 7.500000 1.060660
v -6.010407 0.000000 4.596194
v -4.596194 10.000000 6.010407
v -4.596194 5.000000 6.010407
v -4.596194 0.000000 6.010407
v -6.010407 10.000000 4.596194
v -6.010407 5.000000 4.596194
v -6.010407 7.500000 4.596194
v -4.596194 7.500000 6.010407
v 6.363961 2.500000 -7.778174
v 7.778174 2.500000 -6.363961
v -7.778174 2.500000 6.363961
v -6.363961 2.500000 7.778174
v 0.707107 2.500000 0.707107
v -0.707107 2.500000 -0.707107
v -4.242640 2.500000 2.828427
v -2.828427 2.500000 4.242640
v -1.060660 2.500000 2.474874
v -2.474874 2.500000 1.060660
v -6.010407 2.500000 4.596194
v -4.596194 2.500000 6.010407
v 4.242640 0.000000 -2.828427
v 2.828427 10.000000 -4.242640
v 2.828427 5.000000 -4.242640
v 2.828427 0.000000 -4.242640
v 4.242640 10.000000 -2.828427
v 4.242640 5.000000 -2.828427
v 4.242640 7.500000 -2.828427
v 2.828427 7.500000 -4.242640
v 4.242640 2.500000 -2.828427
v 2.828427 2.500000 -4.242640
v 1.060660 0.000000 -2.474874
v 2.474874 10.000000 -1.060660
v 2.474874 5.000000 -1.060660
v 2.474874 7.500000 -1.060660
v 2.474874 2.500000 -1.060660
v 2.474874 0.000000 -1.060660
v 1.060660 10.000000 -2.474874
v 1.060660 5.000000 -2.474874
v 1.060660 7.500000 -2.474874
v 1.060660 2.500000 -2.474874
v 6.010407 0.000000 -4.596194
v 4.596194 10.000000 -6.010407
v 4.596194 5.000000 -6.010407
v 4.596194 7.500000 -6.010407
v 4.596194 2.500000 -6.010407
v 4.596194 0.000000 -6.010407
v 6.010407 10.000000 -4.596194
v 6.010407 5.000000 -4.596194
v 6.010407 7.500000 -4.596194
v 6.010407 2.500000 -4.596194
vt 0.875000 0.500000
vt 0.843750 0.750000
vt 0.843750 0.500000
vt 0.625000 0.968750
vt 0.562500 1.000000
vt 0.562500 0.968750
vt 0.625000 0.000000
vt 0.562500 0.250000
vt 0.562500 0.000000
vt 0.375000 0.500000
vt 0.343750 0.750000
vt 0.343750 0.500000
vt 0.625000 0.500000
vt 0.562500 0.750000
vt 0.562500 0.500000
vt 0.625000 0.468750
vt 0.562500 0.468750
vt 0.500000 0.468750
vt 0.437500 0.500000
vt 0.437500 0.468750
vt 0.500000 0.500000
vt 0.437500 0.750000
vt 0.500000 0.000000
vt 0.437500 0.250000
vt 0.437500 0.000000
vt 0.500000 0.968750
vt 0.437500 1.000000
vt 0.437500 0.968750
vt 0.500000 0.843750
vt 0.437500 0.875000
vt 0.437500 0.843750
vt 0.500000 0.343750
vt 0.437500 0.375000
vt 0.437500 0.343750
vt 0.625000 0.343750
vt 0.562500 0.375000
vt 0.562500 0.343750
vt 0.250000 0.500000
vt 0.218750 0.750000
vt 0.218750 0.500000
vt 0.625000 0.843750
vt 0.562500 0.875000
vt 0.562500 0.843750
vt 0.750000 0.500000
vt 0.718750 0.750000
vt 0.718750 0.500000
vt 0.187500 0.500000
vt 0.156250 0.750000
vt 0.156250 0.500000
vt 0.625000 0.281250
vt 0.562500 0.312500
vt 0.562500 0.281250
vt 0.500000 0.281250
vt 0.437500 0.312500
vt 0.437500 0.281250
vt 0.500000 0.906250
vt 0.437500 0.937500
vt 0.437500 0.906250
vt 0.625000 0.906250
vt 0.562500 0.937500
vt 0.562500 0.906250
vt 0.812500 0.500000
vt 0.781250 0.750000
vt 0.781250 0.500000
vt 0.500000 0.937500
vt 0.500000 0.312500
vt 0.500000 0.875000
vt 0.500000 0.375000
vt 0.500000 0.750000
vt 0.500000 0.250000
vt 0.500000 1.000000
vt 0.750000 0.750000
vt 0.625000 0.875000
vt 0.187500 0.750000
vt 0.625000 0.312500
vt 0.625000 0.250000
vt 0.125000 0.750000
vt 0.125000 0.500000
vt 0.625000 0.937500
vt 0.812500 0.750000
vt 0.375000 0.968750
vt 0.375000 0.937500
vt 0.375000 0.281250
vt 0.375000 0.250000
vt 0.375000 0.343750
vt 0.375000 0.312500
vt 0.375000 0.906250
vt 0.375000 0.875000
vt 0.375000 0.375000
vt 0.375000 0.843750
vt 0.375000 1.000000
vt 0.375000 0.000000
vt 0.375000 0.750000
vt 0.375000 0.468750
vt 0.437500 0.406250
vt 0.375000 0.437500
vt 0.375000 0.406250
vt 0.437500 0.781250
vt 0.375000 0.812500
vt 0.375000 0.781250
vt 0.562500 0.406250
vt 0.500000 0.437500
vt 0.500000 0.406250
vt 0.562500 0.781250
vt 0.500000 0.812500
vt 0.500000 0.781250
vt 0.687500 0.500000
vt 0.656250 0.750000
vt 0.656250 0.500000
vt 0.625000 0.781250
vt 0.562500 0.812500
vt 0.437500 0.812500
vt 0.437500 0.437500
vt 0.625000 0.406250
vt 0.562500 0.437500
vt 0.312500 0.500000
vt 0.281250 0.750000
vt 0.281250 0.500000
vt 0.250000 0.750000
vt 0.625000 0.375000
vt 0.687500 0.750000
vt 0.625000 0.812500
vt 0.625000 0.750000
vt 0.625000 0.437500
vt 0.312500 0.750000
vt 0.875000 0.750000
vt 0.625000 1.000000
vn 0.0000 1.0000 0.0000
vn 0.7071 0.0000 0.7071
vn -0.7071 0.0000 0.7071
vn 0.0000 -1.0000 0.0000
vn 0.7071 0.0000 -0.7071
vn -0.7071 0.0000 -0.7071
usemtl Material
s off
f 5/1/1 42/2/1 45/3/1
f 42/4/2 25/5/2 48/6/2
f 7/7/3 28/8/3 25/9/3
f 2/10/4 81/11/4 86/12/4
f 1/13/5 27/14/5 26/15/5
f 82/16/6 26/15/6 84/17/6
f 83/18/6 49/19/6 85/20/6
f 9/21/5 50/22/5 49/19/5
f 10/23/3 51/24/3 52/25/3
f 43/26/2 52/27/2 60/28/2
f 73/29/2 53/30/2 75/31/2
f 35/32/6 54/33/6 58/34/6
f 34/35/6 29/36/6 40/37/6
f 13/38/4 33/39/4 36/40/4
f 72/41/2 30/42/2 74/43/2
f 16/44/1 72/45/1 77/46/1
f 19/47/4 44/48/4 41/49/4
f 45/50/6 31/51/6 47/52/6
f 46/53/6 55/54/6 59/55/6
f 38/56/2 56/57/2 57/58/2
f 37/59/2 32/60/2 39/61/2
f 23/62/1 37/63/1 34/64/1
f 39/61/2 21/65/2 38/56/2
f 47/52/6 24/66/6 46/53/6
f 74/43/2 18/67/2 73/29/2
f 40/37/6 17/68/6 35/32/6
f 84/17/6 9/21/6 83/18/6
f 26/15/5 11/69/5 9/21/5
f 25/9/3 12/70/3 10/23/3
f 48/6/2 10/71/2 43/26/2
f 31/51/6 35/32/6 24/66/6
f 30/42/2 38/56/2 18/67/2
f 34/64/1 14/72/1 16/44/1
f 14/73/2 39/61/2 30/42/2
f 18/67/2 57/58/2 53/30/2
f 36/40/4 22/74/4 19/47/4
f 23/75/6 40/37/6 31/51/6
f 24/66/6 58/34/6 55/54/6
f 32/60/2 43/26/2 21/65/2
f 28/8/6 46/53/6 12/70/6
f 12/70/6 59/55/6 51/24/6
f 5/76/6 47/52/6 28/8/6
f 41/49/4 8/77/4 6/78/4
f 21/65/2 60/28/2 56/57/2
f 20/79/2 48/6/2 32/60/2
f 45/3/1 20/80/1 23/62/1
f 56/57/2 44/81/2 22/82/2
f 51/24/6 41/83/6 6/84/6
f 55/54/6 36/85/6 19/86/6
f 53/30/2 33/87/2 15/88/2
f 57/58/2 22/82/2 33/87/2
f 59/55/6 19/86/6 41/83/6
f 58/34/6 13/89/6 36/85/6
f 75/31/2 15/88/2 76/90/2
f 60/28/2 8/91/2 44/81/2
f 52/25/3 6/84/3 8/92/3
f 49/19/5 4/93/5 2/10/5
f 85/20/6 2/10/6 86/94/6
f 80/95/6 64/96/6 71/97/6
f 90/98/2 61/99/2 81/100/2
f 79/101/6 63/102/6 78/103/6
f 89/104/2 66/105/2 88/106/2
f 62/107/1 87/108/1 82/109/1
f 87/110/2 67/111/2 89/104/2
f 88/106/2 69/112/2 90/98/2
f 78/103/6 70/113/6 80/95/6
f 77/114/6 68/115/6 79/101/6
f 64/116/4 76/117/4 71/118/4
f 71/118/4 15/119/4 13/38/4
f 16/120/6 79/101/6 29/36/6
f 17/68/6 80/95/6 54/33/6
f 29/36/6 78/103/6 17/68/6
f 54/33/6 71/97/6 13/89/6
f 69/112/2 76/90/2 61/99/2
f 67/111/2 73/29/2 66/105/2
f 77/46/1 65/121/1 62/107/1
f 65/122/2 74/43/2 67/111/2
f 66/105/2 75/31/2 69/112/2
f 11/69/2 90/98/2 50/22/2
f 3/123/2 89/104/2 27/14/2
f 82/109/1 3/123/1 1/13/1
f 27/14/2 88/106/2 11/69/2
f 50/22/2 81/100/2 4/93/2
f 70/113/6 86/94/6 64/96/6
f 68/115/6 83/18/6 63/102/6
f 63/102/6 85/20/6 70/113/6
f 62/124/6 84/17/6 68/115/6
f 86/12/4 61/125/4 64/116/4
f 5/1/1 7/126/1 42/2/1
f 42/4/2 7/127/2 25/5/2
f 7/7/3 5/76/3 28/8/3
f 2/10/4 4/93/4 81/11/4
f 1/13/5 3/123/5 27/14/5
f 82/16/6 1/13/6 26/15/6
f 83/18/6 9/21/6 49/19/6
f 9/21/5 11/69/5 50/22/5
f 10/23/3 12/70/3 51/24/3
f 43/26/2 10/71/2 52/27/2
f 73/29/2 18/67/2 53/30/2
f 35/32/6 17/68/6 54/33/6
f 34/35/6 16/120/6 29/36/6
f 13/38/4 15/119/4 33/39/4
f 72/41/2 14/73/2 30/42/2
f 16/44/1 14/72/1 72/45/1
f 19/47/4 22/74/4 44/48/4
f 45/50/6 23/75/6 31/51/6
f 46/53/6 24/66/6 55/54/6
f 38/56/2 21/65/2 56/57/2
f 37/59/2 20/79/2 32/60/2
f 23/62/1 20/80/1 37/63/1
f 39/61/2 32/60/2 21/65/2
f 47/52/6 31/51/6 24/66/6
f 74/43/2 30/42/2 18/67/2
f 40/37/6 29/36/6 17/68/6
f 84/17/6 26/15/6 9/21/6
f 26/15/5 27/14/5 11/69/5
f 25/9/3 28/8/3 12/70/3
f 48/6/2 25/5/2 10/71/2
f 31/51/6 40/37/6 35/32/6
f 30/42/2 39/61/2 38/56/2
f 34/64/1 37/63/1 14/72/1
f 14/73/2 37/59/2 39/61/2
f 18/67/2 38/56/2 57/58/2
f 36/40/4 33/39/4 22/74/4
f 23/75/6 34/35/6 40/37/6
f 24/66/6 35/32/6 58/34/6
f 32/60/2 48/6/2 43/26/2
f 28/8/6 47/52/6 46/53/6
f 12/70/6 46/53/6 59/55/6
f 5/76/6 45/50/6 47/52/6
f 41/49/4 44/48/4 8/77/4
f 21/65/2 43/26/2 60/28/2
f 20/79/2 42/4/2 48/6/2
f 45/3/1 42/2/1 20/80/1
f 56/57/2 60/28/2 44/81/2
f 51/24/6 59/55/6 41/83/6
f 55/54/6 58/34/6 36/85/6
f 53/30/2 57/58/2 33/87/2
f 57/58/2 56/57/2 22/82/2
f 59/55/6 55/54/6 19/86/6
f 58/34/6 54/33/6 13/89/6
f 75/31/2 53/30/2 15/88/2
f 60/28/2 52/27/2 8/91/2
f 52/25/3 51/24/3 6/84/3
f 49/19/5 50/22/5 4/93/5
f 85/20/6 49/19/6 2/10/6
f 80/95/6 70/113/6 64/96/6
f 90/98/2 69/112/2 61/99/2
f 79/101/6 68/115/6 63/102/6
f 89/104/2 67/111/2 66/105/2
f 62/107/1 65/121/1 87/108/1
f 87/110/2 65/122/2 67/111/2
f 88/106/2 66/105/2 69/112/2
f 78/103/6 63/102/6 70/113/6
f 77/114/6 62/124/6 68/115/6
f 64/116/4 61/125/4 76/117/4
f 71/118/4 76/117/4 15/119/4
f 16/120/6 77/114/6 79/101/6
f 17/68/6 78/103/6 80/95/6
f 29/36/6 79/101/6 78/103/6
f 54/33/6 80/95/6 71/97/6
f 69/112/2 75/31/2 76/90/2
f 67/111/2 74/43/2 73/29/2
f 77/46/1 72/45/1 65/121/1
f 65/122/2 72/41/2 74/43/2
f 66/105/2 73/29/2 75/31/2
f 11/69/2 88/106/2 90/98/2
f 3/123/2 87/110/2 89/104/2
f 82/109/1 87/108/1 3/123/1
f 27/14/2 89/104/2 88/106/2
f 50/22/2 90/98/2 81/100/2
f 70/113/6 85/20/6 86/94/6
f 68/115/6 84/17/6 83/18/6
f 63/102/6 83/18/6 85/20/6
f 62/124/6 82/16/6 84/17/6
f 86/12/4 81/11/4 61/125/4
