# Blender v2.93.0 OBJ File: ''
# www.blender.org
mtllib stair.mtl
o Cube
v 1.000000 1.500000 -2.000000
v 1.000000 -1.500000 -2.000000
v 1.085063 0.044927 -0.071933
v 1.000000 -1.500000 2.000000
v -1.000000 1.500000 -2.000000
v -1.000000 -1.500000 -2.000000
v -1.086669 0.068654 -0.102047
v -1.000000 -1.500000 2.000000
vt 0.625000 0.500000
vt 0.875000 0.750000
vt 0.625000 0.750000
vt 0.375000 1.000000
vt 0.375000 0.750000
vt 0.625000 0.000000
vt 0.375000 0.250000
vt 0.375000 0.000000
vt 0.375000 0.500000
vt 0.125000 0.750000
vt 0.125000 0.500000
vt 0.625000 0.250000
vt 0.875000 0.500000
vt 0.625000 1.000000
vn 0.0004 0.7982 0.6024
vn 0.0000 0.8017 0.5978
vn -0.9985 -0.0552 0.0000
vn 0.0000 -1.0000 0.0000
vn 0.9985 -0.0550 0.0000
vn 0.0000 0.0000 -1.0000
vn 0.0000 0.7984 0.6021
vn 0.0005 0.8014 0.5981
vn -0.9990 0.0000 -0.0456
vn 0.9990 0.0000 -0.0441
usemtl Material
s off
f 1/1/1 7/2/1 3/3/1
f 3/3/2 8/4/2 4/5/2
f 7/6/3 6/7/3 8/8/3
f 2/9/4 8/10/4 6/11/4
f 2/9/5 3/3/5 4/5/5
f 5/12/6 2/9/6 6/7/6
f 1/1/7 5/13/7 7/2/7
f 3/3/8 7/14/8 8/4/8
f 7/6/9 5/12/9 6/7/9
f 2/9/4 4/5/4 8/10/4
f 2/9/10 1/1/10 3/3/10
f 5/12/6 1/1/6 2/9/6
