# Blender v2.93.0 OBJ File: ''
# www.blender.org
mtllib wierdBox.mtl
o Cube
v 1.069756 0.211063 -1.529615
v 1.000000 -1.000000 -1.000000
v 1.218366 0.227889 1.801279
v 1.000000 -1.000000 1.000000
v -0.183510 1.249639 -0.692474
v -1.000000 -1.000000 -1.000000
v 0.411394 0.628916 1.002523
v -1.000000 -1.000000 1.000000
vt 0.625000 0.500000
vt 0.875000 0.750000
vt 0.625000 0.750000
vt 0.375000 0.750000
vt 0.625000 1.000000
vt 0.375000 1.000000
vt 0.375000 0.000000
vt 0.625000 0.250000
vt 0.375000 0.250000
vt 0.375000 0.500000
vt 0.125000 0.750000
vt 0.125000 0.500000
vt 0.875000 0.500000
vt 0.625000 0.000000
vn 0.4648 0.8851 -0.0252
vn 0.0000 -0.0015 1.0000
vn -0.9400 0.3412 0.0000
vn 0.0000 -1.0000 0.0000
vn 0.9983 -0.0575 0.0000
vn 0.0000 -0.4007 -0.9162
vn 0.6554 0.7538 0.0460
vn -0.7418 -0.2690 0.6143
vn -0.6750 0.5841 0.4508
vn 0.9881 -0.1474 -0.0433
vn -0.3789 0.2590 -0.8885
usemtl Material
s off
f 1/1/1 7/2/1 3/3/1
f 4/4/2 7/5/2 8/6/2
f 8/7/3 5/8/3 6/9/3
f 2/10/4 8/11/4 6/12/4
f 1/1/5 4/4/5 2/10/5
f 6/9/6 1/1/6 2/10/6
f 1/1/7 5/13/7 7/2/7
f 4/4/8 3/3/8 7/5/8
f 8/7/9 7/14/9 5/8/9
f 2/10/4 4/4/4 8/11/4
f 1/1/10 3/3/10 4/4/10
f 6/9/11 5/8/11 1/1/11
